<svg width="35" height="35" viewBox="0 0 35 35" fill="none" xmlns="http://www.w3.org/2000/svg">
<path fill-rule="evenodd" clip-rule="evenodd" d="M17.5 27.3438C17.2099 27.3438 16.9317 27.2285 16.7266 27.0234C16.5215 26.8183 16.4062 26.5401 16.4062 26.25L16.4063 6.5625C16.4063 6.27242 16.5215 5.99422 16.7266 5.7891C16.9317 5.58398 17.2099 5.46875 17.5 5.46875C17.7901 5.46875 18.0683 5.58398 18.2734 5.7891C18.4785 5.99422 18.5938 6.27242 18.5938 6.5625L18.5938 26.25C18.5938 26.5401 18.4785 26.8183 18.2734 27.0234C18.0683 27.2285 17.7901 27.3438 17.5 27.3438Z" fill="#1ABC9C"/>
<path fill-rule="evenodd" clip-rule="evenodd" d="M18.2743 29.2119C18.1727 29.3137 18.052 29.3945 17.9192 29.4497C17.7863 29.5048 17.6438 29.5332 17.5 29.5332C17.3561 29.5332 17.2136 29.5048 17.0808 29.4497C16.9479 29.3945 16.8272 29.3137 16.7256 29.2119L10.1631 22.6494C9.95771 22.444 9.84233 22.1654 9.84233 21.875C9.84233 21.5846 9.95771 21.306 10.1631 21.1006C10.3685 20.8952 10.647 20.7799 10.9375 20.7799C11.2279 20.7799 11.5065 20.8952 11.7118 21.1006L17.5 26.8909L23.2881 21.1006C23.4935 20.8952 23.772 20.7799 24.0625 20.7799C24.3529 20.7799 24.6315 20.8952 24.8368 21.1006C25.0422 21.306 25.1576 21.5846 25.1576 21.875C25.1576 22.1654 25.0422 22.444 24.8368 22.6494L18.2743 29.2119Z" fill="#1ABC9C"/>
</svg>
